{
  "asset": {
    "generator": "Khronos glTF Blender I/O v4.1.62",
    "version": "2.0"
  },
  "scene": 0,
  "scenes": [
    {
      "name": "Scene",
      "nodes": [0]
    }
  ],
  "nodes": [
    {
      "mesh": 0,
      "name": "abb B print"
    }
  ],
  "meshes": [
    {
      "name": "abb B print",
      "primitives": [
        {
          "attributes": {
            "POSITION": 0,
            "NORMAL": 1
          },
          "indices": 2
        }
      ]
    }
  ],
  "accessors": [
    {
      "bufferView": 0,
      "componentType": 5126,
      "count": 44929,
      "max": [29.95853042602539, 87.01082611083984, 28.446157455444336],
      "min": [-30.44271469116211, -58.699684143066406, -29.229990005493164],
      "type": "VEC3"
    },
    {
      "bufferView": 1,
      "componentType": 5126,
      "count": 44929,
      "type": "VEC3"
    },
    {
      "bufferView": 2,
      "componentType": 5123,
      "count": 269562,
      "type": "SCALAR"
    }
  ],
  "bufferViews": [
    {
      "buffer": 0,
      "byteLength": 539148,
      "byteOffset": 0,
      "target": 34962
    },
    {
      "buffer": 0,
      "byteLength": 539148,
      "byteOffset": 539148,
      "target": 34962
    },
    {
      "buffer": 0,
      "byteLength": 539124,
      "byteOffset": 1078296,
      "target": 34963
    }
  ],
  "buffers": [
    {
      "byteLength": 1617420,
      "uri": "b.bin"
    }
  ]
}
