{
	"asset":{
		"generator":"Khronos glTF Blender I/O v4.1.62",
		"version":"2.0"
	},
	"scene":0,
	"scenes":[
		{
			"name":"Scene",
			"nodes":[
				0
			]
		}
	],
	"nodes":[
		{
			"mesh":0,
			"name":"abb C print"
		}
	],
	"meshes":[
		{
			"name":"abb C print",
			"primitives":[
				{
					"attributes":{
						"POSITION":0,
						"NORMAL":1
					},
					"indices":2
				}
			]
		}
	],
	"accessors":[
		{
			"bufferView":0,
			"componentType":5126,
			"count":43003,
			"max":[
				32.148109436035156,
				65.56307983398438,
				28.249420166015625
			],
			"min":[
				-30.39243507385254,
				-51.91318130493164,
				-32.520599365234375
			],
			"type":"VEC3"
		},
		{
			"bufferView":1,
			"componentType":5126,
			"count":43003,
			"type":"VEC3"
		},
		{
			"bufferView":2,
			"componentType":5123,
			"count":258006,
			"type":"SCALAR"
		}
	],
	"bufferViews":[
		{
			"buffer":0,
			"byteLength":516036,
			"byteOffset":0,
			"target":34962
		},
		{
			"buffer":0,
			"byteLength":516036,
			"byteOffset":516036,
			"target":34962
		},
		{
			"buffer":0,
			"byteLength":516012,
			"byteOffset":1032072,
			"target":34963
		}
	],
	"buffers":[
		{
			"byteLength":1548084,
			"uri":"c.bin"
		}
	]
}
