{
  "asset": {
    "generator": "Khronos glTF Blender I/O v4.1.62",
    "version": "2.0"
  },
  "scene": 0,
  "scenes": [
    {
      "name": "Scene",
      "nodes": [0]
    }
  ],
  "nodes": [
    {
      "mesh": 0,
      "name": "abb D print"
    }
  ],
  "meshes": [
    {
      "name": "abb D print",
      "primitives": [
        {
          "attributes": {
            "POSITION": 0,
            "NORMAL": 1
          },
          "indices": 2
        }
      ]
    }
  ],
  "accessors": [
    {
      "bufferView": 0,
      "componentType": 5126,
      "count": 43713,
      "max": [26.354259490966797, 89.90771484375, 31.0865478515625],
      "min": [-31.312053680419922, -56.593441009521484, -33.72784423828125],
      "type": "VEC3"
    },
    {
      "bufferView": 1,
      "componentType": 5126,
      "count": 43713,
      "type": "VEC3"
    },
    {
      "bufferView": 2,
      "componentType": 5123,
      "count": 262266,
      "type": "SCALAR"
    }
  ],
  "bufferViews": [
    {
      "buffer": 0,
      "byteLength": 524556,
      "byteOffset": 0,
      "target": 34962
    },
    {
      "buffer": 0,
      "byteLength": 524556,
      "byteOffset": 524556,
      "target": 34962
    },
    {
      "buffer": 0,
      "byteLength": 524532,
      "byteOffset": 1049112,
      "target": 34963
    }
  ],
  "buffers": [
    {
      "byteLength": 1573644,
      "uri": "d.bin"
    }
  ]
}
