{
	"asset":{
		"generator":"Khronos glTF Blender I/O v4.1.62",
		"version":"2.0"
	},
	"scene":0,
	"scenes":[
		{
			"name":"Scene",
			"nodes":[
				0
			]
		}
	],
	"nodes":[
		{
			"mesh":0,
			"name":"abb E print"
		}
	],
	"meshes":[
		{
			"name":"abb E print",
			"primitives":[
				{
					"attributes":{
						"POSITION":0,
						"NORMAL":1
					},
					"indices":2
				}
			]
		}
	],
	"accessors":[
		{
			"bufferView":0,
			"componentType":5126,
			"count":43901,
			"max":[
				29.20746612548828,
				62.38361358642578,
				24.5865478515625
			],
			"min":[
				-29.514076232910156,
				-55.70299530029297,
				-33.089599609375
			],
			"type":"VEC3"
		},
		{
			"bufferView":1,
			"componentType":5126,
			"count":43901,
			"type":"VEC3"
		},
		{
			"bufferView":2,
			"componentType":5123,
			"count":263394,
			"type":"SCALAR"
		}
	],
	"bufferViews":[
		{
			"buffer":0,
			"byteLength":526812,
			"byteOffset":0,
			"target":34962
		},
		{
			"buffer":0,
			"byteLength":526812,
			"byteOffset":526812,
			"target":34962
		},
		{
			"buffer":0,
			"byteLength":526788,
			"byteOffset":1053624,
			"target":34963
		}
	],
	"buffers":[
		{
			"byteLength":1580412,
			"uri":"e.bin"
		}
	]
}
