{
	"asset":{
		"generator":"Khronos glTF Blender I/O v4.1.62",
		"version":"2.0"
	},
	"scene":0,
	"scenes":[
		{
			"name":"Scene",
			"nodes":[
				0
			]
		}
	],
	"nodes":[
		{
			"mesh":0,
			"name":"abb G print"
		}
	],
	"meshes":[
		{
			"name":"abb G print",
			"primitives":[
				{
					"attributes":{
						"POSITION":0,
						"NORMAL":1
					},
					"indices":2
				}
			]
		}
	],
	"accessors":[
		{
			"bufferView":0,
			"componentType":5126,
			"count":46838,
			"max":[
				33.4384765625,
				58.50739669799805,
				49.128173828125
			],
			"min":[
				-41.51171875,
				-49.886478424072266,
				-40.23272705078125
			],
			"type":"VEC3"
		},
		{
			"bufferView":1,
			"componentType":5126,
			"count":46838,
			"type":"VEC3"
		},
		{
			"bufferView":2,
			"componentType":5123,
			"count":281016,
			"type":"SCALAR"
		}
	],
	"bufferViews":[
		{
			"buffer":0,
			"byteLength":562056,
			"byteOffset":0,
			"target":34962
		},
		{
			"buffer":0,
			"byteLength":562056,
			"byteOffset":562056,
			"target":34962
		},
		{
			"buffer":0,
			"byteLength":562032,
			"byteOffset":1124112,
			"target":34963
		}
	],
	"buffers":[
		{
			"byteLength":1686144,
			"uri":"g.bin"
		}
	]
}
