{
	"asset":{
		"generator":"Khronos glTF Blender I/O v4.1.62",
		"version":"2.0"
	},
	"scene":0,
	"scenes":[
		{
			"name":"Scene",
			"nodes":[
				0
			]
		}
	],
	"nodes":[
		{
			"mesh":0,
			"name":"abb I print"
		}
	],
	"meshes":[
		{
			"name":"abb I print",
			"primitives":[
				{
					"attributes":{
						"POSITION":0,
						"NORMAL":1
					},
					"indices":2
				}
			]
		}
	],
	"accessors":[
		{
			"bufferView":0,
			"componentType":5126,
			"count":45907,
			"max":[
				31.220067977905273,
				72.05745697021484,
				24.84425926208496
			],
			"min":[
				-31.666446685791016,
				-55.170021057128906,
				-32.831886291503906
			],
			"type":"VEC3"
		},
		{
			"bufferView":1,
			"componentType":5126,
			"count":45907,
			"type":"VEC3"
		},
		{
			"bufferView":2,
			"componentType":5123,
			"count":275430,
			"type":"SCALAR"
		}
	],
	"bufferViews":[
		{
			"buffer":0,
			"byteLength":550884,
			"byteOffset":0,
			"target":34962
		},
		{
			"buffer":0,
			"byteLength":550884,
			"byteOffset":550884,
			"target":34962
		},
		{
			"buffer":0,
			"byteLength":550860,
			"byteOffset":1101768,
			"target":34963
		}
	],
	"buffers":[
		{
			"byteLength":1652628,
			"uri":"i.bin"
		}
	]
}
