{
	"asset":{
		"generator":"Khronos glTF Blender I/O v4.1.62",
		"version":"2.0"
	},
	"scene":0,
	"scenes":[
		{
			"name":"Scene",
			"nodes":[
				0
			]
		}
	],
	"nodes":[
		{
			"mesh":0,
			"name":"abb J print"
		}
	],
	"meshes":[
		{
			"name":"abb J print",
			"primitives":[
				{
					"attributes":{
						"POSITION":0,
						"NORMAL":1
					},
					"indices":2
				}
			]
		}
	],
	"accessors":[
		{
			"bufferView":0,
			"componentType":5126,
			"count":46035,
			"max":[
				31.99371337890625,
				67.44094848632812,
				25.01800537109375
			],
			"min":[
				-67.19973754882812,
				-55.571502685546875,
				-34.98651123046875
			],
			"type":"VEC3"
		},
		{
			"bufferView":1,
			"componentType":5126,
			"count":46035,
			"type":"VEC3"
		},
		{
			"bufferView":2,
			"componentType":5123,
			"count":276198,
			"type":"SCALAR"
		}
	],
	"bufferViews":[
		{
			"buffer":0,
			"byteLength":552420,
			"byteOffset":0,
			"target":34962
		},
		{
			"buffer":0,
			"byteLength":552420,
			"byteOffset":552420,
			"target":34962
		},
		{
			"buffer":0,
			"byteLength":552396,
			"byteOffset":1104840,
			"target":34963
		}
	],
	"buffers":[
		{
			"byteLength":1657236,
			"uri":"j.bin"
		}
	]
}
