{
	"asset":{
		"generator":"Khronos glTF Blender I/O v4.1.62",
		"version":"2.0"
	},
	"scene":0,
	"scenes":[
		{
			"name":"Scene",
			"nodes":[
				0
			]
		}
	],
	"nodes":[
		{
			"mesh":0,
			"name":"abb L print"
		}
	],
	"meshes":[
		{
			"name":"abb L print",
			"primitives":[
				{
					"attributes":{
						"POSITION":0,
						"NORMAL":1
					},
					"indices":2
				}
			]
		}
	],
	"accessors":[
		{
			"bufferView":0,
			"componentType":5126,
			"count":45841,
			"max":[
				65.0177001953125,
				93.26233673095703,
				24.590087890625
			],
			"min":[
				-32.74729919433594,
				-58.28649139404297,
				-34.18994140625
			],
			"type":"VEC3"
		},
		{
			"bufferView":1,
			"componentType":5126,
			"count":45841,
			"type":"VEC3"
		},
		{
			"bufferView":2,
			"componentType":5123,
			"count":275034,
			"type":"SCALAR"
		}
	],
	"bufferViews":[
		{
			"buffer":0,
			"byteLength":550092,
			"byteOffset":0,
			"target":34962
		},
		{
			"buffer":0,
			"byteLength":550092,
			"byteOffset":550092,
			"target":34962
		},
		{
			"buffer":0,
			"byteLength":550068,
			"byteOffset":1100184,
			"target":34963
		}
	],
	"buffers":[
		{
			"byteLength":1650252,
			"uri":"l.bin"
		}
	]
}
