{
  "asset": {
    "generator": "Khronos glTF Blender I/O v4.1.62",
    "version": "2.0"
  },
  "scene": 0,
  "scenes": [
    {
      "name": "Scene",
      "nodes": [0]
    }
  ],
  "nodes": [
    {
      "mesh": 0,
      "name": "abb M print"
    }
  ],
  "meshes": [
    {
      "name": "abb M print",
      "primitives": [
        {
          "attributes": {
            "POSITION": 0,
            "NORMAL": 1
          },
          "indices": 2
        }
      ]
    }
  ],
  "accessors": [
    {
      "bufferView": 0,
      "componentType": 5126,
      "count": 33088,
      "max": [28.58595848083496, 63.30292510986328, 26.5535888671875],
      "min": [-30.24441909790039, -46.68022918701172, -31.1226806640625],
      "type": "VEC3"
    },
    {
      "bufferView": 1,
      "componentType": 5126,
      "count": 33088,
      "type": "VEC3"
    },
    {
      "bufferView": 2,
      "componentType": 5123,
      "count": 198438,
      "type": "SCALAR"
    }
  ],
  "bufferViews": [
    {
      "buffer": 0,
      "byteLength": 397056,
      "byteOffset": 0,
      "target": 34962
    },
    {
      "buffer": 0,
      "byteLength": 397056,
      "byteOffset": 397056,
      "target": 34962
    },
    {
      "buffer": 0,
      "byteLength": 396876,
      "byteOffset": 794112,
      "target": 34963
    }
  ],
  "buffers": [
    {
      "byteLength": 1190988,
      "uri": "m.bin"
    }
  ]
}
