{
  "asset": {
    "generator": "Khronos glTF Blender I/O v4.1.62",
    "version": "2.0"
  },
  "scene": 0,
  "scenes": [
    {
      "name": "Scene",
      "nodes": [0]
    }
  ],
  "nodes": [
    {
      "mesh": 0,
      "name": "abb N print"
    }
  ],
  "meshes": [
    {
      "name": "abb N print",
      "primitives": [
        {
          "attributes": {
            "POSITION": 0,
            "NORMAL": 1
          },
          "indices": 2
        }
      ]
    }
  ],
  "accessors": [
    {
      "bufferView": 0,
      "componentType": 5126,
      "count": 45891,
      "max": [27.354164123535156, 63.825260162353516, 25.74859619140625],
      "min": [-30.31218719482422, -54.936885833740234, -31.9276123046875],
      "type": "VEC3"
    },
    {
      "bufferView": 1,
      "componentType": 5126,
      "count": 45891,
      "type": "VEC3"
    },
    {
      "bufferView": 2,
      "componentType": 5123,
      "count": 275334,
      "type": "SCALAR"
    }
  ],
  "bufferViews": [
    {
      "buffer": 0,
      "byteLength": 550692,
      "byteOffset": 0,
      "target": 34962
    },
    {
      "buffer": 0,
      "byteLength": 550692,
      "byteOffset": 550692,
      "target": 34962
    },
    {
      "buffer": 0,
      "byteLength": 550668,
      "byteOffset": 1101384,
      "target": 34963
    }
  ],
  "buffers": [
    {
      "byteLength": 1652052,
      "uri": "n.bin"
    }
  ]
}
