{
	"asset":{
		"generator":"Khronos glTF Blender I/O v4.1.62",
		"version":"2.0"
	},
	"scene":0,
	"scenes":[
		{
			"name":"Scene",
			"nodes":[
				0
			]
		}
	],
	"nodes":[
		{
			"mesh":0,
			"name":"abb O print"
		}
	],
	"meshes":[
		{
			"name":"abb O print",
			"primitives":[
				{
					"attributes":{
						"POSITION":0,
						"NORMAL":1
					},
					"indices":2
				}
			]
		}
	],
	"accessors":[
		{
			"bufferView":0,
			"componentType":5126,
			"count":43605,
			"max":[
				27.772109985351562,
				62.61818313598633,
				30.57598876953125
			],
			"min":[
				-29.894241333007812,
				-54.42197799682617,
				-34.97967529296875
			],
			"type":"VEC3"
		},
		{
			"bufferView":1,
			"componentType":5126,
			"count":43605,
			"type":"VEC3"
		},
		{
			"bufferView":2,
			"componentType":5123,
			"count":261618,
			"type":"SCALAR"
		}
	],
	"bufferViews":[
		{
			"buffer":0,
			"byteLength":523260,
			"byteOffset":0,
			"target":34962
		},
		{
			"buffer":0,
			"byteLength":523260,
			"byteOffset":523260,
			"target":34962
		},
		{
			"buffer":0,
			"byteLength":523236,
			"byteOffset":1046520,
			"target":34963
		}
	],
	"buffers":[
		{
			"byteLength":1569756,
			"uri":"o.bin"
		}
	]
}
