{
	"asset":{
		"generator":"Khronos glTF Blender I/O v4.1.62",
		"version":"2.0"
	},
	"scene":0,
	"scenes":[
		{
			"name":"Scene",
			"nodes":[
				0
			]
		}
	],
	"nodes":[
		{
			"mesh":0,
			"name":"abb Q print",
			"translation":[
				-0.0001865826634457335,
				0.0004964180989190936,
				-0.002097000367939472
			]
		}
	],
	"meshes":[
		{
			"name":"abb Q print",
			"primitives":[
				{
					"attributes":{
						"POSITION":0,
						"NORMAL":1
					},
					"indices":2
				}
			]
		}
	],
	"accessors":[
		{
			"bufferView":0,
			"componentType":5126,
			"count":47364,
			"max":[
				31.227142333984375,
				43.74174499511719,
				69.96205139160156
			],
			"min":[
				-30.496673583984375,
				-45.33955383300781,
				-44.706398010253906
			],
			"type":"VEC3"
		},
		{
			"bufferView":1,
			"componentType":5126,
			"count":47364,
			"type":"VEC3"
		},
		{
			"bufferView":2,
			"componentType":5123,
			"count":284172,
			"type":"SCALAR"
		}
	],
	"bufferViews":[
		{
			"buffer":0,
			"byteLength":568368,
			"byteOffset":0,
			"target":34962
		},
		{
			"buffer":0,
			"byteLength":568368,
			"byteOffset":568368,
			"target":34962
		},
		{
			"buffer":0,
			"byteLength":568344,
			"byteOffset":1136736,
			"target":34963
		}
	],
	"buffers":[
		{
			"byteLength":1705080,
			"uri":"q.bin"
		}
	]
}
