{
	"asset":{
		"generator":"Khronos glTF Blender I/O v4.1.62",
		"version":"2.0"
	},
	"scene":0,
	"scenes":[
		{
			"name":"Scene",
			"nodes":[
				0
			]
		}
	],
	"nodes":[
		{
			"mesh":0,
			"name":"abb R print"
		}
	],
	"meshes":[
		{
			"name":"abb R print",
			"primitives":[
				{
					"attributes":{
						"POSITION":0,
						"NORMAL":1
					},
					"indices":2
				}
			]
		}
	],
	"accessors":[
		{
			"bufferView":0,
			"componentType":5126,
			"count":47112,
			"max":[
				27.493192672729492,
				93.5467529296875,
				27.4487247467041
			],
			"min":[
				-30.17314338684082,
				-54.533809661865234,
				-30.2274227142334
			],
			"type":"VEC3"
		},
		{
			"bufferView":1,
			"componentType":5126,
			"count":47112,
			"type":"VEC3"
		},
		{
			"bufferView":2,
			"componentType":5123,
			"count":282468,
			"type":"SCALAR"
		}
	],
	"bufferViews":[
		{
			"buffer":0,
			"byteLength":565344,
			"byteOffset":0,
			"target":34962
		},
		{
			"buffer":0,
			"byteLength":565344,
			"byteOffset":565344,
			"target":34962
		},
		{
			"buffer":0,
			"byteLength":564936,
			"byteOffset":1130688,
			"target":34963
		}
	],
	"buffers":[
		{
			"byteLength":1695624,
			"uri":"r.bin"
		}
	]
}
