{
  "asset": {
    "generator": "Khronos glTF Blender I/O v4.1.62",
    "version": "2.0"
  },
  "scene": 0,
  "scenes": [
    {
      "name": "Scene",
      "nodes": [0]
    }
  ],
  "nodes": [
    {
      "mesh": 0,
      "name": "abb S print"
    }
  ],
  "meshes": [
    {
      "name": "abb S print.001",
      "primitives": [
        {
          "attributes": {
            "POSITION": 0,
            "NORMAL": 1
          },
          "indices": 2
        }
      ]
    }
  ],
  "accessors": [
    {
      "bufferView": 0,
      "componentType": 5126,
      "count": 45309,
      "max": [27.739343643188477, 55.71757507324219, 33.53749084472656],
      "min": [-30.430517196655273, -53.99671936035156, -32.40232849121094],
      "type": "VEC3"
    },
    {
      "bufferView": 1,
      "componentType": 5126,
      "count": 45309,
      "type": "VEC3"
    },
    {
      "bufferView": 2,
      "componentType": 5123,
      "count": 271842,
      "type": "SCALAR"
    }
  ],
  "bufferViews": [
    {
      "buffer": 0,
      "byteLength": 543708,
      "byteOffset": 0,
      "target": 34962
    },
    {
      "buffer": 0,
      "byteLength": 543708,
      "byteOffset": 543708,
      "target": 34962
    },
    {
      "buffer": 0,
      "byteLength": 543684,
      "byteOffset": 1087416,
      "target": 34963
    }
  ],
  "buffers": [
    {
      "byteLength": 1631100,
      "uri": "s.bin"
    }
  ]
}
