{
  "asset": {
    "generator": "Khronos glTF Blender I/O v4.1.62",
    "version": "2.0"
  },
  "scene": 0,
  "scenes": [
    {
      "name": "Scene",
      "nodes": [0]
    }
  ],
  "nodes": [
    {
      "mesh": 0,
      "name": "abb T print"
    }
  ],
  "meshes": [
    {
      "name": "abb T print.001",
      "primitives": [
        {
          "attributes": {
            "POSITION": 0,
            "NORMAL": 1
          },
          "indices": 2
        }
      ]
    }
  ],
  "accessors": [
    {
      "bufferView": 0,
      "componentType": 5126,
      "count": 44544,
      "max": [30.745574951171875, 59.046329498291016, 28.2890625],
      "min": [-32.06217956542969, -53.987823486328125, -29.387054443359375],
      "type": "VEC3"
    },
    {
      "bufferView": 1,
      "componentType": 5126,
      "count": 44544,
      "type": "VEC3"
    },
    {
      "bufferView": 2,
      "componentType": 5123,
      "count": 267252,
      "type": "SCALAR"
    }
  ],
  "bufferViews": [
    {
      "buffer": 0,
      "byteLength": 534528,
      "byteOffset": 0,
      "target": 34962
    },
    {
      "buffer": 0,
      "byteLength": 534528,
      "byteOffset": 534528,
      "target": 34962
    },
    {
      "buffer": 0,
      "byteLength": 534504,
      "byteOffset": 1069056,
      "target": 34963
    }
  ],
  "buffers": [
    {
      "byteLength": 1603560,
      "uri": "t.bin"
    }
  ]
}
