{
  "asset": {
    "generator": "Khronos glTF Blender I/O v4.1.62",
    "version": "2.0"
  },
  "scene": 0,
  "scenes": [
    {
      "name": "Scene",
      "nodes": [0]
    }
  ],
  "nodes": [
    {
      "mesh": 0,
      "name": "abb U print"
    }
  ],
  "meshes": [
    {
      "name": "abb U print.001",
      "primitives": [
        {
          "attributes": {
            "POSITION": 0,
            "NORMAL": 1
          },
          "indices": 2
        }
      ]
    }
  ],
  "accessors": [
    {
      "bufferView": 0,
      "componentType": 5126,
      "count": 45320,
      "max": [28.307106018066406, 92.76866912841797, 26.2515869140625],
      "min": [-29.359207153320312, -58.08338165283203, -31.4246826171875],
      "type": "VEC3"
    },
    {
      "bufferView": 1,
      "componentType": 5126,
      "count": 45320,
      "type": "VEC3"
    },
    {
      "bufferView": 2,
      "componentType": 5123,
      "count": 271908,
      "type": "SCALAR"
    }
  ],
  "bufferViews": [
    {
      "buffer": 0,
      "byteLength": 543840,
      "byteOffset": 0,
      "target": 34962
    },
    {
      "buffer": 0,
      "byteLength": 543840,
      "byteOffset": 543840,
      "target": 34962
    },
    {
      "buffer": 0,
      "byteLength": 543816,
      "byteOffset": 1087680,
      "target": 34963
    }
  ],
  "buffers": [
    {
      "byteLength": 1631496,
      "uri": "u.bin"
    }
  ]
}
