{
  "asset": {
    "generator": "Khronos glTF Blender I/O v4.1.62",
    "version": "2.0"
  },
  "scene": 0,
  "scenes": [
    {
      "name": "Scene",
      "nodes": [0]
    }
  ],
  "nodes": [
    {
      "mesh": 0,
      "name": "abb V print"
    }
  ],
  "meshes": [
    {
      "name": "abb V print",
      "primitives": [
        {
          "attributes": {
            "POSITION": 0,
            "NORMAL": 1
          },
          "indices": 2
        }
      ]
    }
  ],
  "accessors": [
    {
      "bufferView": 0,
      "componentType": 5126,
      "count": 178796,
      "max": [27.85540199279785, 92.55286407470703, 27.7242431640625],
      "min": [-30.05018424987793, -58.01439666748047, -29.95196533203125],
      "type": "VEC3"
    },
    {
      "bufferView": 1,
      "componentType": 5126,
      "count": 178796,
      "type": "VEC3"
    },
    {
      "bufferView": 2,
      "componentType": 5125,
      "count": 1072764,
      "type": "SCALAR"
    }
  ],
  "bufferViews": [
    {
      "buffer": 0,
      "byteLength": 2145552,
      "byteOffset": 0,
      "target": 34962
    },
    {
      "buffer": 0,
      "byteLength": 2145552,
      "byteOffset": 2145552,
      "target": 34962
    },
    {
      "buffer": 0,
      "byteLength": 4291056,
      "byteOffset": 4291104,
      "target": 34963
    }
  ],
  "buffers": [
    {
      "byteLength": 8582160,
      "uri": "v.bin"
    }
  ]
}
