{
	"asset":{
		"generator":"Khronos glTF Blender I/O v4.1.62",
		"version":"2.0"
	},
	"scene":0,
	"scenes":[
		{
			"name":"Scene",
			"nodes":[
				0
			]
		}
	],
	"nodes":[
		{
			"mesh":0,
			"name":"abb W print"
		}
	],
	"meshes":[
		{
			"name":"abb W print",
			"primitives":[
				{
					"attributes":{
						"POSITION":0,
						"NORMAL":1
					},
					"indices":2
				}
			]
		}
	],
	"accessors":[
		{
			"bufferView":0,
			"componentType":5126,
			"count":45677,
			"max":[
				28.490379333496094,
				91.75801086425781,
				26.8382568359375
			],
			"min":[
				-29.17597198486328,
				-60.34318542480469,
				-30.837890625
			],
			"type":"VEC3"
		},
		{
			"bufferView":1,
			"componentType":5126,
			"count":45677,
			"type":"VEC3"
		},
		{
			"bufferView":2,
			"componentType":5123,
			"count":274050,
			"type":"SCALAR"
		}
	],
	"bufferViews":[
		{
			"buffer":0,
			"byteLength":548124,
			"byteOffset":0,
			"target":34962
		},
		{
			"buffer":0,
			"byteLength":548124,
			"byteOffset":548124,
			"target":34962
		},
		{
			"buffer":0,
			"byteLength":548100,
			"byteOffset":1096248,
			"target":34963
		}
	],
	"buffers":[
		{
			"byteLength":1644348,
			"uri":"w.bin"
		}
	]
}
