{
	"asset":{
		"generator":"Khronos glTF Blender I/O v4.1.62",
		"version":"2.0"
	},
	"scene":0,
	"scenes":[
		{
			"name":"Scene",
			"nodes":[
				0
			]
		}
	],
	"nodes":[
		{
			"mesh":0,
			"name":"abb Y print"
		}
	],
	"meshes":[
		{
			"name":"abb Y print",
			"primitives":[
				{
					"attributes":{
						"POSITION":0,
						"NORMAL":1
					},
					"indices":2
				}
			]
		}
	],
	"accessors":[
		{
			"bufferView":0,
			"componentType":5126,
			"count":45743,
			"max":[
				55.90699005126953,
				70.13153076171875,
				24.7420654296875
			],
			"min":[
				-42.71375274658203,
				-54.832035064697266,
				-34.68829345703125
			],
			"type":"VEC3"
		},
		{
			"bufferView":1,
			"componentType":5126,
			"count":45743,
			"type":"VEC3"
		},
		{
			"bufferView":2,
			"componentType":5123,
			"count":274446,
			"type":"SCALAR"
		}
	],
	"bufferViews":[
		{
			"buffer":0,
			"byteLength":548916,
			"byteOffset":0,
			"target":34962
		},
		{
			"buffer":0,
			"byteLength":548916,
			"byteOffset":548916,
			"target":34962
		},
		{
			"buffer":0,
			"byteLength":548892,
			"byteOffset":1097832,
			"target":34963
		}
	],
	"buffers":[
		{
			"byteLength":1646724,
			"uri":"y.bin"
		}
	]
}
