{
	"asset":{
		"generator":"Khronos glTF Blender I/O v4.1.62",
		"version":"2.0"
	},
	"scene":0,
	"scenes":[
		{
			"name":"Scene",
			"nodes":[
				0
			]
		}
	],
	"nodes":[
		{
			"mesh":0,
			"name":"abb Z print"
		}
	],
	"meshes":[
		{
			"name":"abb Z print",
			"primitives":[
				{
					"attributes":{
						"POSITION":0,
						"NORMAL":1
					},
					"indices":2
				}
			]
		}
	],
	"accessors":[
		{
			"bufferView":0,
			"componentType":5126,
			"count":46475,
			"max":[
				28.634166717529297,
				88.53775024414062,
				31.749114990234375
			],
			"min":[
				-31.588077545166016,
				-56.042327880859375,
				-34.096221923828125
			],
			"type":"VEC3"
		},
		{
			"bufferView":1,
			"componentType":5126,
			"count":46475,
			"type":"VEC3"
		},
		{
			"bufferView":2,
			"componentType":5123,
			"count":278838,
			"type":"SCALAR"
		}
	],
	"bufferViews":[
		{
			"buffer":0,
			"byteLength":557700,
			"byteOffset":0,
			"target":34962
		},
		{
			"buffer":0,
			"byteLength":557700,
			"byteOffset":557700,
			"target":34962
		},
		{
			"buffer":0,
			"byteLength":557676,
			"byteOffset":1115400,
			"target":34963
		}
	],
	"buffers":[
		{
			"byteLength":1673076,
			"uri":"z.bin"
		}
	]
}
